<?xml version="1.0" encoding="utf-8"?>
<!-- Generator: Adobe Illustrator 15.0.0, SVG Export Plug-In . SVG Version: 6.00 Build 0)  -->
<!DOCTYPE svg PUBLIC "-//W3C//DTD SVG 1.1//EN" "http://www.w3.org/Graphics/SVG/1.1/DTD/svg11.dtd">
<svg version="1.1" id="logo_1_" xmlns="http://www.w3.org/2000/svg" xmlns:xlink="http://www.w3.org/1999/xlink" x="0px" y="0px"
	 width="196.986px" height="39.369px" viewBox="0 0 196.986 39.369" enable-background="new 0 0 196.986 39.369"
	 xml:space="preserve">
<path d="M13.529,33.439c-2.516,0.01-5.015-0.4-7.395-1.213C3.906,31.453,1.831,30.297,0,28.812l2.965-3.247
	c1.462,1.146,3.067,2.098,4.774,2.833c1.885,0.752,3.9,1.124,5.93,1.096c1.637,0.072,3.259-0.332,4.669-1.165
	c1.155-0.693,1.858-1.942,1.85-3.289c0.019-0.626-0.104-1.248-0.362-1.818c-0.317-0.58-0.777-1.069-1.336-1.423
	c-0.763-0.502-1.592-0.894-2.463-1.166c-1.291-0.41-2.604-0.747-3.934-1.008c-1.625-0.338-3.227-0.777-4.797-1.313
	c-1.229-0.408-2.389-0.998-3.443-1.749c-0.869-0.628-1.574-1.455-2.055-2.413c-0.498-1.098-0.74-2.293-0.706-3.498
	c-0.022-1.244,0.26-2.476,0.823-3.586c0.543-1.062,1.315-1.991,2.259-2.722c1.049-0.807,2.235-1.417,3.502-1.802
	c1.468-0.446,2.995-0.667,4.529-0.653c2.233-0.014,4.454,0.33,6.578,1.021c1.812,0.627,3.527,1.504,5.095,2.606L21.239,8.96
	c-1.364-0.9-2.827-1.644-4.36-2.214c-1.531-0.568-3.152-0.861-4.786-0.863c-1.546-0.091-3.081,0.318-4.377,1.165
	c-1.027,0.674-1.649,1.816-1.657,3.044c-0.021,0.657,0.113,1.311,0.391,1.906c0.322,0.61,0.815,1.115,1.418,1.451
	c0.819,0.479,1.696,0.854,2.609,1.114c1.057,0.332,2.428,0.688,4.085,1.055c1.583,0.364,3.142,0.824,4.669,1.376
	c1.193,0.415,2.311,1.021,3.309,1.796c0.82,0.647,1.484,1.471,1.944,2.407c0.479,0.999,0.725,2.094,0.718,3.201
	c0.03,1.33-0.261,2.646-0.846,3.842c-0.557,1.102-1.354,2.064-2.334,2.815c-1.105,0.806-2.35,1.397-3.671,1.749
	c-1.558,0.423-3.166,0.629-4.78,0.611"/>
<path d="M100.673,39.369c-2.685,0-4.669-1.504-6.724-4.507c-1.681-2.478-5.252-7.888-6.344-9.327
	c-1.704-2.304-4.541-4.053-7.161-4.053h-3.502v11.486h-4.984V2.374h14.72c1.879-0.027,3.751,0.247,5.544,0.81
	c1.462,0.463,2.813,1.221,3.969,2.227c0.842,0.809,1.513,1.778,1.973,2.852c0.858,2.076,0.924,4.396,0.187,6.518
	c-0.392,0.961-0.953,1.847-1.657,2.611c-0.793,0.865-1.731,1.586-2.772,2.128c-1.627,0.808-3.387,1.319-5.195,1.51
	c-0.747,0.053-1.085,0.059-1.085,0.059l0,0c0.029,0,2.334-0.082,5.3,3.696c0.864,1.102,5.836,8.744,7.4,10.919
	c1.816,2.529,3.555,3.125,5.504,3.655L100.673,39.369z M76.965,17.53h8.866c2.253,0,4.295-0.49,5.644-1.498
	c1.477-1.096,2.276-2.332,2.276-4.028c0.108-1.651-0.675-3.234-2.054-4.15c-1.308-0.95-2.772-1.428-5.51-1.428h-9.222V17.53z"/>
<path d="M131.834,32.991l-3.461-7.62h-16.745l-3.502,7.62h-5.071l14.544-30.839h4.95l14.544,30.839H131.834z M113.379,21.407h13.243
	l-6.647-14.248L113.379,21.407z"/>
<polygon points="147.662,32.991 147.662,20.871 134.565,2.374 140.449,2.374 150.248,16.732 160.146,2.374 165.832,2.374 
	152.74,20.731 152.74,32.991 "/>
<path d="M191.693,32.991l-3.461-7.62h-16.74l-3.502,7.62h-5.048l14.556-30.839h4.943l14.545,30.839H191.693z M173.244,21.407h13.242
	l-6.618-14.248L173.244,21.407z"/>
<path d="M61.294,7.363h-0.233c0.501,1.722,0.784,3.501,0.84,5.294c0,8.284-5.994,15.494-13.961,17.815
	c-7.967-2.332-13.961-9.531-13.961-17.815c0.06-1.793,0.342-3.571,0.841-5.294h-0.228c-2.408,2.879-3.728,6.51-3.73,10.26
	c0,9.095,7.646,16.464,17.078,16.464s17.078-7.369,17.078-16.464C65.016,13.874,63.698,10.244,61.294,7.363"/>
<path d="M38.807,18.609c1.604-5.751,4.773-10.943,9.157-15c4.375,4.06,7.537,9.252,9.134,15h0.181
	c1.045-1.778,1.459-4.302,1.459-6.413C58.738,6.46,54.203,1.603,47.964,0C41.725,1.603,37.19,6.46,37.19,12.196
	c0,2.087,0.414,4.61,1.459,6.413H38.807z"/>
</svg>
